<svg width="90" height="24" viewBox="0 0 90 24" fill="none" xmlns="http://www.w3.org/2000/svg">
<path d="M26 8.76707V7H35V8.76707H31.5074V18H29.4925V8.76707H26Z" fill="#01579B"/>
<path d="M37 15.2857V11.7143C37 9.90476 37.9212 9 39.7636 9H42.2364C44.0788 9 45 9.90476 45 11.7143V15.2857C45 17.0952 44.0788 18 42.2364 18H39.7636C37.9212 18 37 17.0952 37 15.2857ZM39.0848 15.4762C39.0683 15.58 39.0769 15.6861 39.11 15.786C39.1432 15.8858 39.1999 15.9766 39.2755 16.0509C39.3511 16.1252 39.4435 16.1808 39.5452 16.2134C39.6469 16.2459 39.755 16.2544 39.8606 16.2381H42.1394C42.2451 16.2544 42.3531 16.2459 42.4548 16.2134C42.5565 16.1808 42.6489 16.1252 42.7246 16.0509C42.8002 15.9766 42.8568 15.8858 42.89 15.786C42.9231 15.6861 42.9317 15.58 42.9152 15.4762V11.5238C42.9317 11.42 42.9231 11.3139 42.89 11.214C42.8568 11.1142 42.8002 11.0234 42.7246 10.9491C42.6489 10.8748 42.5565 10.8192 42.4548 10.7866C42.3531 10.7541 42.2451 10.7456 42.1394 10.7619H39.8606C39.755 10.7456 39.6469 10.7541 39.5452 10.7866C39.4435 10.8192 39.3511 10.8748 39.2755 10.9491C39.1999 11.0234 39.1432 11.1142 39.11 11.214C39.0769 11.3139 39.0683 11.42 39.0848 11.5238V15.4762Z" fill="#01579B"/>
<path d="M49 18V6H50.7711V13.1011L53.8916 9.50562H55.6205L55.7892 9.82022L53.006 13.0562L56 17.6854L55.8735 18H54.1024L51.8253 14.4045L50.7711 15.573V18H49Z" fill="#01579B"/>
<path d="M60 15.2857V11.7143C60 9.90476 60.8313 9 62.4938 9H64.55C66.2125 9 67 9.90476 67 11.7143V14.2381H61.8375V15.4762C61.8375 16 62.1 16.2381 62.5813 16.2381H66.6938V17.3333L65.8625 18H62.4938C60.8313 18 60 17.0952 60 15.2857ZM61.8375 12.6667H65.1625V11.5238C65.1775 11.42 65.1697 11.3139 65.1398 11.214C65.1099 11.1142 65.0587 11.0234 64.9905 10.9491C64.9223 10.8748 64.8389 10.8192 64.7471 10.7866C64.6554 10.7541 64.5578 10.7456 64.4625 10.7619H62.5813C62.1 10.7619 61.8375 11 61.8375 11.5238V12.6667Z" fill="#01579B"/>
<path d="M71 18V9H75.55C77.2125 9 78 9.90476 78 11.7143V18H76.1625V11.5238C76.1774 11.42 76.1697 11.3139 76.1398 11.214C76.1099 11.1142 76.0587 11.0234 75.9905 10.9491C75.9223 10.8748 75.8389 10.8192 75.7471 10.7866C75.6553 10.7541 75.5578 10.7456 75.4625 10.7619H72.8375V18H71Z" fill="#01579B"/>
<path d="M82 18V7H90V8.76707H84.1078V11.4177H89.521V13.1847H84.1078V16.2329H90V18H82Z" fill="#01579B"/>
<path fill-rule="evenodd" clip-rule="evenodd" d="M14.4252 0L23 11.9878L14.4257 24L11.0004 19.2043L16.1493 11.9887L11 4.79557L14.4252 0ZM14.4259 2.02855L12.4501 4.79479L17.5992 11.9876L12.4497 19.204L14.4254 21.97L21.5502 11.9885L14.4259 2.02855Z" fill="#01579B"/>
<path fill-rule="evenodd" clip-rule="evenodd" d="M8.58227 0L12 4.79499L6.86085 11.9887L11.9996 19.2049L8.58177 24L0 11.9878L8.58227 0ZM1.44838 11.9885L8.58067 21.9718L10.5531 19.2045L5.41379 11.9876L10.5527 4.7942L8.58017 2.02677L1.44838 11.9885Z" fill="#01579B"/>
<path d="M17 12L11.5 14.1693L6 12L11.5 19L17 12Z" fill="#01579B"/>
</svg>
