<svg width="30" height="30" viewBox="0 0 30 30" fill="none" xmlns="http://www.w3.org/2000/svg">
<g id="supply-chain 1">
<g id="Group">
<path id="Vector" d="M15.8789 15.5073V21.6597L21.207 18.5835V12.4312L15.8789 15.5073Z" fill="#E46962"/>
<path id="Vector_2" d="M15 13.9851L20.328 10.9089L15 7.83276L9.67188 10.9089L15 13.9851Z" fill="#E46962"/>
<path id="Vector_3" d="M14.1211 15.5073L8.79297 12.4312V18.5835L14.1211 21.6597V15.5073Z" fill="#E46962"/>
<path id="Vector_4" d="M27.29 18.5944C27.9731 16.2593 27.9723 13.7539 27.2878 11.4074C28.423 10.4688 28.7513 8.8173 27.9908 7.5C27.2308 6.18357 25.6381 5.64205 24.2581 6.1541C22.5774 4.395 20.4072 3.14291 18.0329 2.56248C17.7875 1.11006 16.5215 0 15.0004 0C13.4802 0 12.2149 1.10859 11.9684 2.55961C9.60475 3.13559 7.43549 4.38885 5.74565 6.15469C5.15092 5.93221 4.50352 5.89904 3.87786 6.06668C3.08415 6.27938 2.42081 6.78838 2.01001 7.5C1.24993 8.81648 1.57735 10.4666 2.71073 11.4056C2.0277 13.7406 2.02846 16.2461 2.71295 18.5926C1.57776 19.5312 1.2494 21.1826 2.00995 22.5C2.42081 23.2116 3.08415 23.7206 3.8778 23.9333C4.14282 24.0043 4.41176 24.0394 4.67895 24.0394C5.04147 24.0394 5.40042 23.9732 5.74231 23.8457C7.42307 25.6049 9.59338 26.8571 11.9678 27.4376C12.2132 28.8899 13.4792 30 15.0004 30C16.5205 30 17.7858 28.8914 18.0323 27.4403C20.3958 26.8644 22.565 25.6113 24.2547 23.8455C24.6023 23.975 24.9634 24.0375 25.3215 24.0374C26.3854 24.0374 27.4216 23.4857 27.9907 22.4999C28.7508 21.1836 28.4234 19.5335 27.29 18.5944ZM17.814 25.6825C17.3358 24.603 16.255 23.8477 15.0004 23.8477C13.7467 23.8477 12.6666 24.6018 12.1879 25.6799C10.2822 25.1769 8.53817 24.1712 7.157 22.7791C7.37872 22.4759 7.54524 22.1317 7.64538 21.7581C7.85801 20.9644 7.74891 20.1354 7.33805 19.4238C6.71122 18.3382 5.51807 17.7799 4.34503 17.9044C3.82776 16.0021 3.82676 13.9884 4.3421 12.0959C4.45096 12.1076 4.56006 12.1137 4.66881 12.1137C5.7327 12.1137 6.76893 11.5619 7.33805 10.5762C7.74891 9.86455 7.85807 9.03563 7.64538 8.24191C7.54547 7.8692 7.37954 7.52578 7.15864 7.2232C8.54737 5.82463 10.2905 4.81729 12.1867 4.31754C12.6649 5.39701 13.7457 6.15234 15.0004 6.15234C16.254 6.15234 17.3341 5.39818 17.8129 4.32006C19.7191 4.82332 21.4636 5.82943 22.8449 7.22209C22.1491 8.17588 22.0354 9.48961 22.6627 10.5762C23.2318 11.562 24.2679 12.1136 25.3319 12.1136C25.4398 12.1136 25.5479 12.1076 25.6559 12.0962C26.1731 13.9985 26.174 16.0121 25.6585 17.9046C24.4846 17.779 23.29 18.3373 22.6627 19.4238C22.0359 20.5095 22.149 21.822 22.8432 22.7756C21.4543 24.1748 19.7108 25.1826 17.814 25.6825Z" fill="#E46962"/>
</g>
</g>
</svg>
