<svg width="24" height="32" viewBox="0 0 24 32" fill="none" xmlns="http://www.w3.org/2000/svg">
<path id="Vector" d="M21 10.75H19.5V7.75C19.5 3.61 16.14 0.25 12 0.25C7.86 0.25 4.5 3.61 4.5 7.75V10.75H3C1.35 10.75 0 12.1 0 13.75V28.75C0 30.4 1.35 31.75 3 31.75H21C22.65 31.75 24 30.4 24 28.75V13.75C24 12.1 22.65 10.75 21 10.75ZM12 24.25C10.35 24.25 9 22.9 9 21.25C9 19.6 10.35 18.25 12 18.25C13.65 18.25 15 19.6 15 21.25C15 22.9 13.65 24.25 12 24.25ZM16.65 10.75H7.35V7.75C7.35 5.185 9.435 3.1 12 3.1C14.565 3.1 16.65 5.185 16.65 7.75V10.75Z" fill="#5CC56E"/>
</svg>
