<svg width="16" height="18" viewBox="0 0 16 18" fill="none" xmlns="http://www.w3.org/2000/svg">
<g id="Group 223">
<path id="Vector" d="M15.0024 12.0522L14.0481 15.2787L12.1748 14.7664L15.0024 12.0522Z" fill="#E4761B" stroke="#E4761B" stroke-width="0.0521454"/>
<path id="Vector_2" d="M12.1748 14.7664L13.9816 12.2908L15.0024 12.0522L12.1748 14.7664Z" fill="#E4761B" stroke="#E4761B" stroke-width="0.0521454"/>
<path id="Vector_3" d="M13.5983 9.61964L15.0023 12.0522L13.9815 12.2908L13.5983 9.61964ZM13.5983 9.61964L14.5017 8.9939L15.0023 12.0522L13.5983 9.61964Z" fill="#F6851B" stroke="#F6851B" stroke-width="0.0521454"/>
<path id="Vector_4" d="M12.4485 7.78154L15.0453 6.71777L14.9163 7.3005L12.4485 7.78154ZM14.8341 8.00055L12.4485 7.78154L14.9163 7.3005L14.8341 8.00055Z" fill="#763D16" stroke="#763D16" stroke-width="0.0521454"/>
<path id="Vector_5" d="M14.8341 8.00055L14.5017 8.99392L12.4485 7.78154L14.8341 8.00055ZM15.3543 6.96416L14.9163 7.3005L15.0453 6.71777L15.3543 6.96416ZM14.8341 8.00055L14.9163 7.3005L15.2643 7.5899L14.8341 8.00055Z" fill="#763D16" stroke="#763D16" stroke-width="0.0521454"/>
<path id="Vector_6" d="M10.1604 13.9805L10.8096 14.1877L12.1745 14.7666L10.1604 13.9805Z" fill="#E2761B" stroke="#E2761B" stroke-width="0.0521454"/>
<path id="Vector_7" d="M14.5015 8.99412L14.8339 8.00075L15.1194 8.21976L14.5015 8.99412ZM14.5015 8.99412L11.8069 8.10634L12.4483 7.78174L14.5015 8.99412Z" fill="#763D16" stroke="#763D16" stroke-width="0.0521454"/>
<path id="Vector_8" d="M13.0897 4.73511L12.4483 7.7817L11.8069 8.1063L13.0897 4.73511Z" fill="#763D16" stroke="#763D16" stroke-width="0.0521454"/>
<path id="Vector_9" d="M15.0453 6.71793L12.4485 7.7817L13.0899 4.73511L15.0453 6.71793Z" fill="#763D16" stroke="#763D16" stroke-width="0.0521454"/>
<path id="Vector_10" d="M13.0897 4.73499L15.8 4.42212L15.0452 6.71782L13.0897 4.73499Z" fill="#763D16" stroke="#763D16" stroke-width="0.0521454"/>
<path id="Vector_11" d="M14.5015 8.99398L13.5981 9.61972L11.8069 8.1062L14.5015 8.99398Z" fill="#F6851B" stroke="#F6851B" stroke-width="0.0521454"/>
<path id="Vector_12" d="M15.6826 2.22803L15.8 4.42204L13.0897 4.73492L15.6826 2.22803Z" fill="#763D16" stroke="#763D16" stroke-width="0.0521454"/>
<path id="Vector_13" d="M15.6826 2.22803L10.266 6.1663L10.1956 3.49516L15.6826 2.22803Z" fill="#E2761B" stroke="#E2761B" stroke-width="0.0521454"/>
<path id="Vector_14" d="M6.16724 3.17456L10.1955 3.49525L10.2659 6.1664L6.16724 3.17456Z" fill="#F6851B" stroke="#F6851B" stroke-width="0.0521454"/>
<path id="Vector_15" d="M11.8068 8.1063L10.2659 6.1665L13.0895 4.73511L11.8068 8.1063Z" fill="#763D16" stroke="#763D16" stroke-width="0.0521454"/>
<path id="Vector_16" d="M11.8073 8.1062L13.5984 9.61972L11.0837 9.89739L11.8073 8.1062Z" fill="#E4761B" stroke="#E4761B" stroke-width="0.0521454"/>
<path id="Vector_17" d="M11.0832 9.89726L10.2659 6.16626L11.8068 8.10607L11.0832 9.89726Z" fill="#E4761B" stroke="#E4761B" stroke-width="0.0521454"/>
<path id="Vector_18" d="M13.0895 4.73492L10.2659 6.1663L15.6825 2.22803L13.0895 4.73492Z" fill="#763D16" stroke="#763D16" stroke-width="0.0521454"/>
<path id="Vector_19" d="M6.2027 14.7039L7.48156 16.0375L5.74121 14.4536L6.2027 14.7039Z" fill="#C0AD9E" stroke="#C0AD9E" stroke-width="0.0521454"/>
<path id="Vector_20" d="M12.1748 14.7664L12.781 12.4629L13.9816 12.2908L12.1748 14.7664Z" fill="#CD6116" stroke="#CD6116" stroke-width="0.0521454"/>
<path id="Vector_21" d="M1.01733 8.28597L3.2309 5.95898L1.30283 8.0083L1.01733 8.28597Z" fill="#E2761B" stroke="#E2761B" stroke-width="0.0521454"/>
<path id="Vector_22" d="M13.9812 12.2909L12.7806 12.463L13.5979 9.61973L13.9812 12.2909ZM10.2659 6.1664L8.11095 6.096L6.16724 3.17456L10.2659 6.1664Z" fill="#F6851B" stroke="#F6851B" stroke-width="0.0521454"/>
<path id="Vector_23" d="M13.5981 9.61963L12.7807 12.4629L12.7142 11.0745L13.5981 9.61963Z" fill="#E4751F" stroke="#E4751F" stroke-width="0.0521454"/>
<path id="Vector_24" d="M11.0837 9.8973L13.5984 9.61963L12.7146 11.0745L11.0837 9.8973Z" fill="#CD6116" stroke="#CD6116" stroke-width="0.0521454"/>
<path id="Vector_25" d="M8.11096 6.09595L10.2659 6.16634L11.0832 9.89734L8.11096 6.09595Z" fill="#F6851B" stroke="#F6851B" stroke-width="0.0521454"/>
<path id="Vector_26" d="M8.11109 6.096L2.29558 0.7146L6.16737 3.17456L8.11109 6.096ZM6.16346 15.5213L1.11058 17.0856L0.101562 13.2334L6.16346 15.5213Z" fill="#E4761B" stroke="#E4761B" stroke-width="0.0521454"/>
<path id="Vector_27" d="M1.76819 9.24812L3.67671 7.75024L5.27627 8.12178L1.76819 9.24812Z" fill="#763D16" stroke="#763D16" stroke-width="0.0521454"/>
<path id="Vector_28" d="M5.27571 8.12183L3.67615 7.7503L4.53263 4.21484L5.27571 8.12183Z" fill="#763D16" stroke="#763D16" stroke-width="0.0521454"/>
<path id="Vector_29" d="M1.30273 8.00836L3.67665 7.75024L1.76813 9.24812L1.30273 8.00836Z" fill="#763D16" stroke="#763D16" stroke-width="0.0521454"/>
<path id="Vector_30" d="M12.7146 11.0746L11.729 10.578L11.0837 9.89746L12.7146 11.0746Z" fill="#CD6116" stroke="#CD6116" stroke-width="0.0521454"/>
<path id="Vector_31" d="M1.3022 8.00838L1.13403 7.12061L3.67612 7.75026L1.3022 8.00838Z" fill="#763D16" stroke="#763D16" stroke-width="0.0521454"/>
<path id="Vector_32" d="M11.5256 11.6964L11.729 10.5779L12.7145 11.0746L11.5256 11.6964Z" fill="#233447" stroke="#233447" stroke-width="0.0521454"/>
<path id="Vector_33" d="M12.781 12.4628L11.5256 11.6963L12.7145 11.0745L12.781 12.4628Z" fill="#F6851B" stroke="#F6851B" stroke-width="0.0521454"/>
<path id="Vector_34" d="M3.67624 7.7503L1.13416 7.12064L0.92688 6.37366L3.67624 7.7503ZM4.53273 4.21484L3.67624 7.7503L0.92688 6.37366L4.53273 4.21484ZM4.53273 4.21484L8.11121 6.09599L5.2758 8.12183L4.53273 4.21484Z" fill="#763D16" stroke="#763D16" stroke-width="0.0521454"/>
<path id="Vector_35" d="M5.27576 8.12179L8.11116 6.09595L9.37438 9.95601L5.27576 8.12179ZM9.37438 9.95601L5.45566 9.87388L5.27576 8.12179L9.37438 9.95601Z" fill="#E4761B" stroke="#E4761B" stroke-width="0.0521454"/>
<path id="Vector_36" d="M1.76819 9.24813L5.27627 8.12179L5.45617 9.87388L1.76819 9.24813ZM11.084 9.89734L9.37489 9.95601L8.11167 6.09595L11.084 9.89734Z" fill="#F6851B" stroke="#F6851B" stroke-width="0.0521454"/>
<path id="Vector_37" d="M11.729 10.578L11.5257 11.6965L11.0837 9.89746L11.729 10.578Z" fill="#CD6116" stroke="#CD6116" stroke-width="0.0521454"/>
<path id="Vector_38" d="M2.2959 0.7146L8.11141 6.096L4.53293 4.21486L2.2959 0.7146Z" fill="#763D16" stroke="#763D16" stroke-width="0.0521454"/>
<path id="Vector_39" d="M0.101562 13.2334L5.00583 13.03L6.16346 15.5213L0.101562 13.2334Z" fill="#E4761B" stroke="#E4761B" stroke-width="0.0521454"/>
<path id="Vector_40" d="M6.16349 15.5214L5.00586 13.0302L7.41497 12.9128L6.16349 15.5214Z" fill="#CD6116" stroke="#CD6116" stroke-width="0.0521454"/>
<path id="Vector_41" d="M11.5253 11.6965L12.7807 12.4631L13.4729 14.0939L11.5253 11.6965ZM5.45559 9.87404L0.101562 13.2335L1.76761 9.24829L5.45559 9.87404ZM5.00583 13.0301L0.101562 13.2335L5.45559 9.87404L5.00583 13.0301ZM11.0834 9.8975L11.4041 11.0629L9.85535 11.1529L11.0834 9.8975ZM9.85535 11.1529L9.37431 9.95616L11.0834 9.8975L9.85535 11.1529Z" fill="#F6851B" stroke="#F6851B" stroke-width="0.0521454"/>
<path id="Vector_42" d="M7.48143 16.0375L6.16345 15.5212L10.747 16.2917L7.48143 16.0375Z" fill="#C0AD9E" stroke="#C0AD9E" stroke-width="0.0521454"/>
<path id="Vector_43" d="M1.76823 9.2483L1.01733 8.28622L1.30283 8.00854L1.76823 9.2483Z" fill="#763D16" stroke="#763D16" stroke-width="0.0521454"/>
<path id="Vector_44" d="M11.2672 15.7207L10.747 16.2917L6.16345 15.5212L11.2672 15.7207Z" fill="#D7C1B3" stroke="#D7C1B3" stroke-width="0.0521454"/>
<path id="Vector_45" d="M11.5136 14.3208L6.16345 15.5214L7.41494 12.9128L11.5136 14.3208Z" fill="#E4761B" stroke="#E4761B" stroke-width="0.0521454"/>
<path id="Vector_46" d="M6.16345 15.5212L11.5136 14.3206L11.2672 15.7207L6.16345 15.5212Z" fill="#D7C1B3" stroke="#D7C1B3" stroke-width="0.0521454"/>
<path id="Vector_47" d="M0.926723 6.37369L0.750732 3.36621L4.53257 4.21488L0.926723 6.37369ZM1.30217 8.00845L0.78202 7.48048L1.134 7.12068L1.30217 8.00845Z" fill="#763D16" stroke="#763D16" stroke-width="0.0521454"/>
<path id="Vector_48" d="M8.49841 10.7304L9.37445 9.95605L9.24931 11.8489L8.49841 10.7304Z" fill="#CD6116" stroke="#CD6116" stroke-width="0.0521454"/>
<path id="Vector_49" d="M9.37463 9.95605L8.49859 10.7304L7.22363 11.3914L9.37463 9.95605Z" fill="#CD6116" stroke="#CD6116" stroke-width="0.0521454"/>
<path id="Vector_50" d="M13.4733 14.0937L13.2347 13.9177L11.5256 11.6963L13.4733 14.0937Z" fill="#F6851B" stroke="#F6851B" stroke-width="0.0521454"/>
<path id="Vector_51" d="M7.22354 11.3915L5.45581 9.87402L9.37453 9.95615L7.22354 11.3915Z" fill="#CD6116" stroke="#CD6116" stroke-width="0.0521454"/>
<path id="Vector_52" d="M9.24927 11.8489L9.37442 9.95605L9.85546 11.1528L9.24927 11.8489Z" fill="#E4751F" stroke="#E4751F" stroke-width="0.0521454"/>
<path id="Vector_53" d="M0.610107 6.67076L0.92689 6.37354L1.13417 7.12052L0.610107 6.67076Z" fill="#763D16" stroke="#763D16" stroke-width="0.0521454"/>
<path id="Vector_54" d="M9.24948 11.849L7.22363 11.3914L8.49859 10.7305L9.24948 11.849Z" fill="#233447" stroke="#233447" stroke-width="0.0521454"/>
<path id="Vector_55" d="M4.53257 4.21486L0.750732 3.36619L2.29554 0.7146L4.53257 4.21486Z" fill="#763D16" stroke="#763D16" stroke-width="0.0521454"/>
<path id="Vector_56" d="M10.7474 16.2918L10.9625 16.8784L7.48181 16.0376L10.7474 16.2918Z" fill="#C0AD9E" stroke="#C0AD9E" stroke-width="0.0521454"/>
<path id="Vector_57" d="M7.41527 12.9127L7.22363 11.3914L9.24948 11.8489L7.41527 12.9127Z" fill="#F6851B" stroke="#F6851B" stroke-width="0.0521454"/>
<path id="Vector_58" d="M5.45581 9.87402L7.22354 11.3915L7.41517 12.9128L5.45581 9.87402Z" fill="#E4751F" stroke="#E4751F" stroke-width="0.0521454"/>
<path id="Vector_59" d="M9.85538 11.1529L11.4041 11.0629L13.2344 13.9179L9.85538 11.1529ZM5.45561 9.87402L7.41497 12.9128L5.00586 13.0301L5.45561 9.87402Z" fill="#F6851B" stroke="#F6851B" stroke-width="0.0521454"/>
<path id="Vector_60" d="M9.85546 11.1528L11.7796 14.0821L9.24927 11.849L9.85546 11.1528Z" fill="#E4751F" stroke="#E4751F" stroke-width="0.0521454"/>
<path id="Vector_61" d="M9.24927 11.8489L11.7796 14.082L11.5137 14.3206L9.24927 11.8489Z" fill="#F6851B" stroke="#F6851B" stroke-width="0.0521454"/>
<path id="Vector_62" d="M11.5139 14.3207L7.41528 12.9127L9.2495 11.849L11.5139 14.3207ZM13.2347 13.9178L11.7798 14.0821L9.85569 11.1528L13.2347 13.9178Z" fill="#F6851B" stroke="#F6851B" stroke-width="0.0521454"/>
<path id="Vector_63" d="M13.6178 15.2944L12.992 16.5498L10.9623 16.8783L13.6178 15.2944ZM10.9623 16.8783L10.7472 16.2917L11.2673 15.7207L10.9623 16.8783Z" fill="#C0AD9E" stroke="#C0AD9E" stroke-width="0.0521454"/>
<path id="Vector_64" d="M11.2673 15.7207L11.6506 15.5682L10.9623 16.8783L11.2673 15.7207ZM10.9623 16.8783L11.6506 15.5682L13.6178 15.2944L10.9623 16.8783Z" fill="#C0AD9E" stroke="#C0AD9E" stroke-width="0.0521454"/>
<path id="Vector_65" d="M13.2343 13.9177L13.7154 14.211L12.2527 14.387L13.2343 13.9177Z" fill="#161616" stroke="#161616" stroke-width="0.0521454"/>
<path id="Vector_66" d="M12.2529 14.387L11.7797 14.082L13.2345 13.9177L12.2529 14.387ZM12.0847 14.6178L13.8642 14.4027L13.6178 15.2944L12.0847 14.6178Z" fill="#161616" stroke="#161616" stroke-width="0.0521454"/>
<path id="Vector_67" d="M13.6174 15.2944L11.6502 15.5682L12.0843 14.6178L13.6174 15.2944ZM11.6502 15.5682L11.267 15.7207L11.5134 14.3206L11.6502 15.5682ZM11.5134 14.3206L11.7793 14.082L12.2525 14.3871L11.5134 14.3206ZM13.7152 14.2111L13.8638 14.4027L12.0843 14.6178L13.7152 14.2111Z" fill="#161616" stroke="#161616" stroke-width="0.0521454"/>
<path id="Vector_68" d="M12.0849 14.6179L12.2531 14.3872L13.7158 14.2112L12.0849 14.6179ZM11.5139 14.3207L12.0849 14.6179L11.6508 15.5683L11.5139 14.3207Z" fill="#161616" stroke="#161616" stroke-width="0.0521454"/>
<path id="Vector_69" d="M12.2531 14.387L12.0849 14.6178L11.5139 14.3206L12.2531 14.387Z" fill="#161616" stroke="#161616" stroke-width="0.0521454"/>
</g>
</svg>
