<svg width="17" height="18" viewBox="0 0 17 18" fill="none" xmlns="http://www.w3.org/2000/svg">
<g id="Group 1">
<path id="Vector" d="M15.9121 8.50402L11.8013 2.67803L10.4498 0.777942L10.4216 0.75L10.3934 0.777942L9.04195 2.67803L8.76039 3.09716L10.14 5.03916L10.4216 4.634L13.5047 8.99302L10.4216 13.352L7.33849 8.99302L8.23949 7.72163L6.85984 5.77964L4.93114 8.50402L4.59326 8.99302L4.93114 9.48201L9.04195 15.308L10.3934 17.2221L10.4216 17.25L10.4498 17.2221L11.8013 15.308L15.9121 9.48201L16.2499 8.99302L15.9121 8.50402Z" fill="#01579B"/>
<path id="Vector_2" d="M12.0829 8.50402L7.97207 2.67803L6.62057 0.777942L6.59241 0.75L6.55018 0.777942L5.21276 2.67803L1.10195 8.50402L0.75 8.99302L1.10195 9.48201L5.21276 15.308L6.55018 17.2221L6.59241 17.25L6.62057 17.2221L7.97207 15.308L8.19732 14.9867L6.83174 13.0167L6.59241 13.352L3.50931 8.99302L6.59241 4.634L9.66144 8.99302L8.73229 10.3343L10.0979 12.2902L12.0829 9.48201L12.4208 8.99302L12.0829 8.50402Z" fill="#01579B"/>
</g>
</svg>
