<svg width="30" height="30" viewBox="0 0 30 30" fill="none" xmlns="http://www.w3.org/2000/svg">
<g id="account 1" clip-path="url(#clip0_84_6095)">
<g id="Layer 2">
<path id="Vector" d="M15 15.9375C13.8875 15.9375 12.7999 15.6076 11.8749 14.9895C10.9499 14.3714 10.2289 13.4929 9.80318 12.4651C9.37744 11.4373 9.26604 10.3063 9.48309 9.21512C9.70013 8.12398 10.2359 7.1217 11.0225 6.33503C11.8092 5.54836 12.8115 5.01263 13.9026 4.79559C14.9938 4.57854 16.1248 4.68994 17.1526 5.11568C18.1804 5.54142 19.0589 6.26239 19.677 7.18742C20.2951 8.11245 20.625 9.19998 20.625 10.3125C20.625 11.8043 20.0324 13.2351 18.9775 14.29C17.9226 15.3449 16.4918 15.9375 15 15.9375ZM15 6.5625C14.2583 6.5625 13.5333 6.78244 12.9166 7.19449C12.2999 7.60655 11.8193 8.19222 11.5355 8.87744C11.2516 9.56266 11.1774 10.3167 11.3221 11.0441C11.4668 11.7715 11.8239 12.4397 12.3484 12.9642C12.8728 13.4886 13.541 13.8458 14.2684 13.9904C14.9958 14.1351 15.7498 14.0609 16.4351 13.7771C17.1203 13.4932 17.706 13.0126 18.118 12.3959C18.5301 11.7792 18.75 11.0542 18.75 10.3125C18.75 9.31794 18.3549 8.36411 17.6517 7.66085C16.9484 6.95759 15.9946 6.5625 15 6.5625Z" fill="#E46962"/>
<path id="Vector_2" d="M14.9996 29.0626C12.9206 29.0612 10.8679 28.5988 8.98902 27.7089C7.11018 26.8189 5.45205 25.5234 4.13398 23.9157L3.64648 23.3157L4.13398 22.7251C5.45316 21.1194 7.11178 19.8261 8.99056 18.9381C10.8693 18.0502 12.9216 17.5896 14.9996 17.5896C17.0777 17.5896 19.1299 18.0502 21.0087 18.9381C22.8874 19.8261 24.5461 21.1194 25.8652 22.7251L26.3527 23.3157L25.8652 23.9157C24.5472 25.5234 22.889 26.8189 21.0102 27.7089C19.1314 28.5988 17.0786 29.0612 14.9996 29.0626ZM6.10273 23.3251C7.24296 24.5457 8.62192 25.5189 10.154 26.1843C11.6861 26.8497 13.3386 27.1931 15.009 27.1931C16.6793 27.1931 18.3319 26.8497 19.864 26.1843C21.396 25.5189 22.775 24.5457 23.9152 23.3251C22.775 22.1044 21.396 21.1312 19.864 20.4658C18.3319 19.8004 16.6793 19.457 15.009 19.457C13.3386 19.457 11.6861 19.8004 10.154 20.4658C8.62192 21.1312 7.24296 22.1044 6.10273 23.3251Z" fill="#E46962"/>
<path id="Vector_3" d="M14.9996 29.0625C11.8053 29.0646 8.70547 27.9792 6.21027 25.9848C3.71506 23.9904 1.9732 21.206 1.27137 18.0897C0.569543 14.9735 0.949566 11.7111 2.34889 8.83965C3.74822 5.96816 6.08347 3.65864 8.97028 2.2912C11.8571 0.923762 15.1234 0.579897 18.2317 1.3162C21.34 2.05251 24.105 3.8251 26.0716 6.34224C28.0382 8.85938 29.0893 11.9711 29.0518 15.1651C29.0143 18.3592 27.8904 21.4454 25.8652 23.9156C24.5472 25.5234 22.889 26.8188 21.0102 27.7088C19.1314 28.5988 17.0786 29.0611 14.9996 29.0625ZM14.9996 2.81251C12.5892 2.81251 10.2328 3.52729 8.22861 4.86647C6.22439 6.20565 4.66228 8.10908 3.73984 10.3361C2.8174 12.563 2.57604 15.0135 3.0463 17.3777C3.51656 19.7418 4.67731 21.9134 6.38176 23.6179C8.08621 25.3223 10.2578 26.4831 12.622 26.9533C14.9861 27.4236 17.4366 27.1822 19.6636 26.2598C21.8905 25.3373 23.794 23.7752 25.1332 21.771C26.4723 19.7668 27.1871 17.4105 27.1871 15C27.1871 11.7677 25.9031 8.66775 23.6175 6.38215C21.3319 4.09655 18.2319 2.81251 14.9996 2.81251Z" fill="#E46962"/>
<path id="Vector_4" d="M4.85547 23.3251C4.85547 23.3251 14.2961 33.872 23.9055 24.3751L25.143 23.3251C25.143 23.3251 17.118 15.0001 8.97109 19.997L4.85547 23.3251Z" fill="#E46962"/>
<path id="Vector_5" d="M15 15C17.5888 15 19.6875 12.9013 19.6875 10.3125C19.6875 7.72367 17.5888 5.625 15 5.625C12.4112 5.625 10.3125 7.72367 10.3125 10.3125C10.3125 12.9013 12.4112 15 15 15Z" fill="#E46962"/>
</g>
</g>
<defs>
<clipPath id="clip0_84_6095">
<rect width="30" height="30" fill="white"/>
</clipPath>
</defs>
</svg>
